<?xml version="1.0" encoding="UTF-8"?>
<!DOCTYPE svg PUBLIC "-//W3C//DTD SVG 1.1//EN" "http://www.w3.org/Graphics/SVG/1.1/DTD/svg11.dtd">
<svg xmlns="http://www.w3.org/2000/svg" version="1.1" width="32px" height="32px" style="shape-rendering:geometricPrecision; text-rendering:geometricPrecision; image-rendering:optimizeQuality; fill-rule:evenodd; clip-rule:evenodd" xmlns:xlink="http://www.w3.org/1999/xlink">
<g><path style="opacity:0.905" fill="#c30b0b" d="M 10.5,2.5 C 26.7289,1.94577 31.8956,9.2791 26,24.5C 19.8691,29.1956 13.3691,29.6956 6.5,26C 1.80442,19.8691 1.30442,13.3691 5,6.5C 6.81213,5.02294 8.64547,3.6896 10.5,2.5 Z M 13.5,8.5 C 18.1585,8.01463 19.4919,9.84796 17.5,14C 12.7282,14.8104 11.3948,12.9771 13.5,8.5 Z M 11.5,19.5 C 14.1873,19.3359 16.854,19.5026 19.5,20C 23.5,21.6667 23.5,23.3333 19.5,25C 16.8333,25.6667 14.1667,25.6667 11.5,25C 7.64905,23.1935 7.64905,21.3602 11.5,19.5 Z"/></g>
</svg>
